<?xml version="1.0" encoding="utf-8"?>
<!-- Generator: Adobe Illustrator 24.3.0, SVG Export Plug-In . SVG Version: 6.00 Build 0)  -->
<svg version="1.1" id="Layer_1_copy" xmlns="http://www.w3.org/2000/svg" xmlns:xlink="http://www.w3.org/1999/xlink" x="0px"
	 y="0px" viewBox="0 0 512 512" style="enable-background:new 0 0 512 512;" xml:space="preserve">
<style type="text/css">
	.st0{fill:#E3111B;}
	.st1{fill:#FFFFFF;}
</style>
<path class="st0" d="M256.5,0C115.3,0,0.5,114.8,0.5,256s114.8,256,256,256s256-114.8,256-256S397.7,0,256.5,0z"/>
<path class="st1" d="M399.9,354.3c12.7,12.7,12.7,33.4,0,46.2c-12.7,12.7-33.4,12.7-46.2,0l-98-98.1l-98,98
	c-12.7,12.7-33.4,12.7-46.2,0c-12.7-12.7-12.7-33.4,0-46.2l0,0l98.1-98l-98-98c-12.7-12.7-12.7-33.4,0-46.2s33.4-12.7,46.2,0
	l98,98.1l98-98.1c12.7-12.7,33.4-12.7,46.2,0c12.7,12.7,12.7,33.4,0,46.2l-98.1,98L399.9,354.3z"/>
</svg>
