<?xml version="1.0" encoding="utf-8"?>
<!-- Generator: Adobe Illustrator 24.3.0, SVG Export Plug-In . SVG Version: 6.00 Build 0)  -->
<svg version="1.1" xmlns="http://www.w3.org/2000/svg" xmlns:xlink="http://www.w3.org/1999/xlink" x="0px" y="0px"
	 viewBox="0 0 32 32" style="enable-background:new 0 0 32 32;" xml:space="preserve">
<style type="text/css">
	.st0{display:none;}
	.st1{display:inline;}
	.st2{fill:#00CC99;}
</style>
<g id="afc84b27-ca66-4222-8d4d-30c5a6b5252d" class="st0">
	<g id="bad40f22-340a-46ff-b0b0-0698e7e45310" class="st1">
		<path d="M23.2,6.4l-17,17c-0.8,0.8-0.8,2,0,2.8c0.8,0.8,2,0.8,2.8,0l0,0l17-17c0.8-0.8,0.8-2,0-2.8S24,5.5,23.2,6.4
			C23.2,6.3,23.2,6.3,23.2,6.4z"/>
	</g>
	<path class="st1" d="M26,23.4L9,6.4c-0.8-0.8-2-0.8-2.8,0s-0.8,2,0,2.8l17,17c0.8,0.8,2.1,0.7,2.8,0C26.7,25.4,26.7,24.1,26,23.4z"
		/>
</g>
<g id="afc84b27-ca66-4222-8d4d-30c5a6b5252d_copy">
	<g id="bad40f22-340a-46ff-b0b0-0698e7e45310_1_">
		<path class="st2" d="M26.3,2.1L1.9,26.4c-1.1,1.1-1.1,2.9,0,4.1c1.1,1.1,2.9,1.1,4.1,0l0,0L30.3,6.1c1.1-1.1,1.2-2.9,0.1-4.1
			S27.5,0.9,26.3,2.1C26.3,2,26.3,2,26.3,2.1z"/>
	</g>
	<path class="st2" d="M30.3,26.4L5.9,2.1C4.8,1,3,1,1.9,2.1S0.8,5,1.9,6.2l24.4,24.3c1.1,1.1,3,1.1,4.1-0.1
		C31.4,29.3,31.4,27.6,30.3,26.4z"/>
</g>
</svg>
