<?xml version="1.0" encoding="utf-8"?>
<!-- Generator: Adobe Illustrator 24.3.0, SVG Export Plug-In . SVG Version: 6.00 Build 0)  -->
<svg version="1.1" xmlns="http://www.w3.org/2000/svg" xmlns:xlink="http://www.w3.org/1999/xlink" x="0px" y="0px"
	 viewBox="0 0 512 512" style="enable-background:new 0 0 512 512;" xml:space="preserve">
<style type="text/css">
	.st0{fill:#00CC99;}
	.st1{fill:#9A9FAC;}
</style>
<g id="Layer_3">
	<path class="st0" d="M56.7,101.7h404.6c18.6,0,33.7-19.8,33.7-44.2s-15.1-44.2-33.7-44.2H56.7C38.1,13.3,23,33.1,23,57.5
		S38.1,101.7,56.7,101.7z M461.3,212.3H56.7c-18.6,0-33.7,19.8-33.7,44.2s15.1,44.2,33.7,44.2h404.6c18.6,0,33.7-19.8,33.7-44.2
		S479.9,212.3,461.3,212.3z M461.3,411.3H56.7C38.1,411.3,23,431,23,455.5s15.1,44.2,33.7,44.2h404.6c18.6,0,33.7-19.8,33.7-44.2
		S479.9,411.3,461.3,411.3L461.3,411.3z"/>
</g>
<g id="Layer_3_copy">
	<path class="st1" d="M56.7,101.7h404.6c18.6,0,33.7-19.8,33.7-44.2s-15.1-44.2-33.7-44.2H56.7C38.1,13.3,23,33.1,23,57.5
		S38.1,101.7,56.7,101.7z M461.3,212.3H56.7c-18.6,0-33.7,19.8-33.7,44.2s15.1,44.2,33.7,44.2h404.6c18.6,0,33.7-19.8,33.7-44.2
		S479.9,212.3,461.3,212.3z M461.3,411.3H56.7C38.1,411.3,23,431,23,455.5s15.1,44.2,33.7,44.2h404.6c18.6,0,33.7-19.8,33.7-44.2
		S479.9,411.3,461.3,411.3L461.3,411.3z"/>
</g>
</svg>
