<?xml version="1.0" encoding="utf-8"?>
<!-- Generator: Adobe Illustrator 24.3.0, SVG Export Plug-In . SVG Version: 6.00 Build 0)  -->
<svg version="1.1" xmlns="http://www.w3.org/2000/svg" xmlns:xlink="http://www.w3.org/1999/xlink" x="0px" y="0px"
	 viewBox="0 0 512 512" style="enable-background:new 0 0 512 512;" xml:space="preserve">
<style type="text/css">
	.st0{fill:#00CC99;}
	.st1{display:none;}
	.st2{display:inline;fill:#9A9FAC;}
</style>
<g id="location_pin_copy">
	<path class="st0" d="M255.5,4.1C165.1,4.2,91.9,77.4,91.8,167.8c0,66.6,26.7,143.9,79.2,229.4c23.4,38.4,49.8,74.9,78.9,109.1
		c1.4,1.6,3.5,2.5,5.7,2.5l0,0c2.2,0,4.3-0.9,5.7-2.5c28.9-34.9,55.3-71.9,78.8-110.7c52.5-86.6,79.2-163.4,79.2-227.9
		C419.1,77.4,345.8,4.2,255.5,4.1z M255.5,224.8c-30.8,0-55.8-25-55.7-55.8c0-30.8,25-55.8,55.8-55.7c30.8,0,55.7,25,55.7,55.7
		c0,30.8-24.9,55.8-55.7,55.8C255.6,224.8,255.5,224.8,255.5,224.8L255.5,224.8z"/>
</g>
<g id="gray" class="st1">
	<path class="st2" d="M255.5,4.1C165.1,4.2,91.9,77.4,91.8,167.8c0,66.6,26.7,143.9,79.2,229.4c23.4,38.4,49.8,74.9,78.9,109.1
		c1.4,1.6,3.5,2.5,5.7,2.5l0,0c2.2,0,4.3-0.9,5.7-2.5c28.9-34.9,55.3-71.9,78.8-110.7c52.5-86.6,79.2-163.4,79.2-227.9
		C419.1,77.4,345.8,4.2,255.5,4.1z M255.5,224.8c-30.8,0-55.8-25-55.7-55.8c0-30.8,25-55.8,55.8-55.7c30.8,0,55.7,25,55.7,55.7
		c0,30.8-24.9,55.8-55.7,55.8C255.6,224.8,255.5,224.8,255.5,224.8L255.5,224.8z"/>
</g>
</svg>
