<svg id="location_pin_copy" data-name="location pin copy" xmlns="http://www.w3.org/2000/svg" viewBox="0 0 512 512"><defs><style>.cls-1{fill:#0c9;}</style></defs><path class="cls-1" d="M255.49,4.08A163.83,163.83,0,0,0,91.81,167.76c0,66.62,26.69,143.94,79.16,229.45a859.73,859.73,0,0,0,78.86,109.15,7.66,7.66,0,0,0,5.66,2.52h0a7.63,7.63,0,0,0,5.73-2.52A923.89,923.89,0,0,0,340,395.68c52.55-86.65,79.16-163.37,79.16-227.92A163.83,163.83,0,0,0,255.49,4.08Zm0,220.69a55.79,55.79,0,1,1,55.84-55.83A55.78,55.78,0,0,1,255.51,224.77Z"/></svg>