<?xml version="1.0" encoding="utf-8"?>
<!-- Generator: Adobe Illustrator 24.3.0, SVG Export Plug-In . SVG Version: 6.00 Build 0)  -->
<svg version="1.1" id="Capa_1" xmlns="http://www.w3.org/2000/svg" xmlns:xlink="http://www.w3.org/1999/xlink" x="0px" y="0px"
	 viewBox="0 0 512 512" style="enable-background:new 0 0 512 512;" xml:space="preserve">
<style type="text/css">
	.st0{fill:#FED9A8;}
	.st1{fill:#333333;}
	.st2{fill:#F4C892;}
	.st3{fill:#1A1A1A;}
	.st4{fill:#FFBF14;}
	.st5{fill:#00CC99;}
	.st6{fill:#FF4C4C;}
	.st7{fill:#F33939;}
</style>
<path class="st0" d="M417.4,343.2L345.1,414l12.9,12.7l131,62c3,1.4,6-1.6,4.6-4.6l-63.3-128.2L417.4,343.2z"/>
<path class="st1" d="M493.8,486.2l-19.2-39L451.2,470l39.9,18.8C492.8,489.6,494.6,487.8,493.8,486.2z"/>
<path class="st2" d="M381.2,378.6L345.1,414l12.9,12.7l131,62c1.5,0.7,3,0.3,4-0.6L381.2,378.6z"/>
<path class="st3" d="M462.8,458.5L451.2,470l39.9,18.8c0.8,0.4,1.7,0.2,2.2-0.4L462.8,458.5z"/>
<path class="st4" d="M105.4,37.7l324.7,317.9l-72.3,70.8L33,108.6C13,89,13,57.3,33,37.8l0,0C53,18.1,85.4,18.1,105.4,37.7z"/>
<path class="st4" d="M33,108.6l324.7,317.9l30.2-29.6L63.2,78.9C48.7,64.6,44.7,43.9,51.4,26.1c-6.7,2.5-13,6.3-18.4,11.6l0,0
	C13,57.2,13,89,33,108.6z"/>
<polygon class="st5" points="61,135.9 133.3,65.1 160.9,92.1 88.5,162.9 "/>
<polygon class="st5" points="61,136 91.6,106 119.2,132.9 88.5,162.9 "/>
<path class="st6" d="M33,108.6L61,136l72.3-70.8l-27.9-27.5c-20-19.6-52.3-19.6-72.3,0l0,0C13,57.2,13,89,33,108.6z"/>
<path class="st7" d="M33,108.6L61,136l30.5-29.9l-28-27.4C48.9,64.5,45,43.8,51.6,26.1c-6.8,2.4-13.1,6.3-18.6,11.6l0,0
	C13,57.2,13,89,33,108.6z"/>
<polygon class="st4" points="112.6,139.3 136.8,115.7 405.9,379.2 381.8,402.8 "/>
</svg>
