<?xml version="1.0" encoding="utf-8"?>
<!-- Generator: Adobe Illustrator 24.2.3, SVG Export Plug-In . SVG Version: 6.00 Build 0)  -->
<svg version="1.1" id="Capa_1" xmlns="http://www.w3.org/2000/svg" xmlns:xlink="http://www.w3.org/1999/xlink" x="0px" y="0px"
	 viewBox="0 0 512 512" style="enable-background:new 0 0 512 512;" xml:space="preserve">
<style type="text/css">
	.st0{stroke:#000000;stroke-miterlimit:10;}
</style>
<g>
	<g>
		<circle cx="152.2" cy="199" r="8.3"/>
	</g>
</g>
<g>
	<g>
		<circle cx="359.8" cy="199" r="8.3"/>
	</g>
</g>
<g>
	<g>
		<path class="st0" d="M423.2,467.3c0,13.9-11.3,25.3-25.3,25.3h-279c-13.9,0-25.3-11.3-25.3-25.3v-279c0-13.9,11.3-25.3,25.3-25.3
			h35.7h207.6h35.7c13.9,0,25.3,11.3,25.3,25.3L423.2,467.3 M439.8,467.3l0-279c0-23.1-18.8-41.9-41.9-41.9h-27.4v-37.1
			c0-61.8-50.3-106.4-112.1-106.4S146.3,47.5,146.3,109.3v37.1h-27.4c-23.1,0-41.9,18.8-41.9,41.9v279c0,23.1,18.8,41.9,41.9,41.9
			h279C421,509.2,439.8,490.4,439.8,467.3 M353.9,146.4h-191v-37.1c0-52.7,42.8-91.7,95.5-91.7s95.5,39,95.5,91.7V146.4z"/>
	</g>
</g>
</svg>
