<?xml version="1.0" encoding="utf-8"?>
<!-- Generator: Adobe Illustrator 24.3.0, SVG Export Plug-In . SVG Version: 6.00 Build 0)  -->
<svg version="1.1" xmlns="http://www.w3.org/2000/svg" xmlns:xlink="http://www.w3.org/1999/xlink" x="0px" y="0px"
	 viewBox="0 0 512 512" style="enable-background:new 0 0 512 512;" xml:space="preserve">
<style type="text/css">
	.st0{display:none;}
	.st1{display:inline;}
	.st2{stroke:#000000;stroke-miterlimit:10;}
	.st3{fill:#00CC99;}
	.st4{fill:#FFFFFF;}
</style>
<g id="Layer_1" class="st0">
	<g id="Capa_1" class="st1">
		<g>
			<g>
				<circle cx="152.2" cy="199" r="8.3"/>
			</g>
		</g>
		<g>
			<g>
				<circle cx="359.8" cy="199" r="8.3"/>
			</g>
		</g>
		<g>
			<g>
				<path class="st2" d="M423.2,467.3c0,13.9-11.3,25.3-25.3,25.3h-279c-13.9,0-25.3-11.3-25.3-25.3v-279
					c0-13.9,11.3-25.3,25.3-25.3h35.7h207.6h35.7c13.9,0,25.3,11.3,25.3,25.3V467.3 M439.8,467.3v-279c0-23.1-18.8-41.9-41.9-41.9
					h-27.4v-37.1c0-61.8-50.3-106.4-112.1-106.4S146.3,47.5,146.3,109.3v37.1h-27.4c-23.1,0-41.9,18.8-41.9,41.9v279
					c0,23.1,18.8,41.9,41.9,41.9h279C421,509.2,439.8,490.4,439.8,467.3 M353.9,146.4h-191v-37.1c0-52.7,42.8-91.7,95.5-91.7
					s95.5,39,95.5,91.7V146.4z"/>
			</g>
		</g>
	</g>
	<g id="Capa_1_copy" class="st1">
		<g>
			<g>
				<circle class="st3" cx="152.2" cy="199" r="8.3"/>
			</g>
		</g>
		<g>
			<g>
				<circle class="st3" cx="359.8" cy="199" r="8.3"/>
			</g>
		</g>
		<g>
			<g>
				<path class="st3" d="M423.2,467.3c0,13.9-11.3,25.3-25.3,25.3h-279c-13.9,0-25.3-11.3-25.3-25.3v-279
					c0-13.9,11.3-25.3,25.3-25.3h35.7h207.6h35.7c13.9,0,25.3,11.3,25.3,25.3V467.3 M439.8,467.3v-279c0-23.1-18.8-41.9-41.9-41.9
					h-27.4v-37.1c0-61.8-50.3-106.4-112.1-106.4S146.3,47.5,146.3,109.3v37.1h-27.4c-23.1,0-41.9,18.8-41.9,41.9v279
					c0,23.1,18.8,41.9,41.9,41.9h279C421,509.2,439.8,490.4,439.8,467.3 M353.9,146.4h-191v-37.1c0-52.7,42.8-91.7,95.5-91.7
					s95.5,39,95.5,91.7V146.4z"/>
			</g>
		</g>
	</g>
	<g id="Capa_1_copy_2" class="st1">
		<g>
			<g>
				<path class="st3" d="M423.2,467.3c0,13.9-11.3,25.3-25.3,25.3h-279c-13.9,0-25.3-11.3-25.3-25.3v-279
					c0-13.9,11.3-25.3,25.3-25.3h35.7h207.6h35.7c13.9,0,25.3,11.3,25.3,25.3V467.3 M439.8,467.3v-279c0-23.1-18.8-41.9-41.9-41.9
					h-27.4v-37.1c0-61.8-50.3-106.4-112.1-106.4S146.3,47.5,146.3,109.3v37.1h-27.4c-23.1,0-41.9,18.8-41.9,41.9v279
					c0,23.1,18.8,41.9,41.9,41.9h279C421,509.2,439.8,490.4,439.8,467.3 M353.9,146.4h-191v-37.1c0-52.7,42.8-91.7,95.5-91.7
					s95.5,39,95.5,91.7V146.4z"/>
			</g>
		</g>
		<rect x="93.6" y="161.4" class="st3" width="332.2" height="332.2"/>
		<g>
			<g>
				<g>
					<circle class="st4" cx="152.2" cy="199" r="8.3"/>
				</g>
			</g>
			<g>
				<g>
					<circle class="st4" cx="359.8" cy="199" r="8.3"/>
				</g>
			</g>
		</g>
	</g>
</g>
<g id="Layer_1_copy">
	<path class="st4" d="M465.1,398.6c18.5,18.5,18.5,48.5,0,67c-9.2,9.2-21.4,13.9-33.5,13.9c-12.1,0-24.3-4.6-33.5-13.9L255.8,323.2
		L113.4,465.6c-9.2,9.2-21.4,13.9-33.5,13.9c-12.1,0-24.3-4.6-33.5-13.9c-18.5-18.5-18.5-48.5,0-67l142.4-142.4L46.4,113.9
		c-18.5-18.5-18.5-48.5,0-67c18.5-18.5,48.5-18.5,67,0l142.4,142.4L398.1,46.9c18.5-18.5,48.5-18.5,67,0c18.5,18.5,18.5,48.5,0,67
		L322.7,256.3L465.1,398.6z"/>
</g>
</svg>
