<?xml version="1.0" encoding="utf-8"?>
<!-- Generator: Adobe Illustrator 24.2.3, SVG Export Plug-In . SVG Version: 6.00 Build 0)  -->
<svg version="1.1" xmlns="http://www.w3.org/2000/svg" xmlns:xlink="http://www.w3.org/1999/xlink" x="0px" y="0px"
	 viewBox="0 0 512 512" style="enable-background:new 0 0 512 512;" xml:space="preserve">
<style type="text/css">
	.st0{display:none;}
	.st1{display:inline;}
	.st2{stroke:#000000;stroke-miterlimit:10;}
	.st3{fill:#00CC99;}
	.st4{fill:#FFFFFF;}
</style>
<g id="Capa_1" class="st0">
	<g class="st1">
		<g>
			<circle cx="152.2" cy="199" r="8.3"/>
		</g>
	</g>
	<g class="st1">
		<g>
			<circle cx="359.8" cy="199" r="8.3"/>
		</g>
	</g>
	<g class="st1">
		<g>
			<path class="st2" d="M423.2,467.3c0,13.9-11.3,25.3-25.3,25.3h-279c-13.9,0-25.3-11.3-25.3-25.3v-279c0-13.9,11.3-25.3,25.3-25.3
				h35.7h207.6h35.7c13.9,0,25.3,11.3,25.3,25.3L423.2,467.3 M439.8,467.3l0-279c0-23.1-18.8-41.9-41.9-41.9h-27.4v-37.1
				c0-61.8-50.3-106.4-112.1-106.4S146.3,47.5,146.3,109.3v37.1h-27.4c-23.1,0-41.9,18.8-41.9,41.9v279c0,23.1,18.8,41.9,41.9,41.9
				h279C421,509.2,439.8,490.4,439.8,467.3 M353.9,146.4h-191v-37.1c0-52.7,42.8-91.7,95.5-91.7s95.5,39,95.5,91.7V146.4z"/>
		</g>
	</g>
</g>
<g id="Capa_1_copy" class="st0">
	<g class="st1">
		<g>
			<circle class="st3" cx="152.2" cy="199" r="8.3"/>
		</g>
	</g>
	<g class="st1">
		<g>
			<circle class="st3" cx="359.8" cy="199" r="8.3"/>
		</g>
	</g>
	<g class="st1">
		<g>
			<path class="st3" d="M423.2,467.3c0,13.9-11.3,25.3-25.3,25.3h-279c-13.9,0-25.3-11.3-25.3-25.3v-279c0-13.9,11.3-25.3,25.3-25.3
				h35.7h207.6h35.7c13.9,0,25.3,11.3,25.3,25.3L423.2,467.3 M439.8,467.3l0-279c0-23.1-18.8-41.9-41.9-41.9h-27.4v-37.1
				c0-61.8-50.3-106.4-112.1-106.4S146.3,47.5,146.3,109.3v37.1h-27.4c-23.1,0-41.9,18.8-41.9,41.9v279c0,23.1,18.8,41.9,41.9,41.9
				h279C421,509.2,439.8,490.4,439.8,467.3 M353.9,146.4h-191v-37.1c0-52.7,42.8-91.7,95.5-91.7s95.5,39,95.5,91.7V146.4z"/>
		</g>
	</g>
</g>
<g id="Capa_1_copy_2">
	<g>
		<g>
			<path class="st3" d="M423.2,467.3c0,13.9-11.3,25.3-25.3,25.3h-279c-13.9,0-25.3-11.3-25.3-25.3v-279c0-13.9,11.3-25.3,25.3-25.3
				h35.7h207.6h35.7c13.9,0,25.3,11.3,25.3,25.3L423.2,467.3 M439.8,467.3l0-279c0-23.1-18.8-41.9-41.9-41.9h-27.4v-37.1
				c0-61.8-50.3-106.4-112.1-106.4S146.3,47.5,146.3,109.3v37.1h-27.4c-23.1,0-41.9,18.8-41.9,41.9v279c0,23.1,18.8,41.9,41.9,41.9
				h279C421,509.2,439.8,490.4,439.8,467.3 M353.9,146.4h-191v-37.1c0-52.7,42.8-91.7,95.5-91.7s95.5,39,95.5,91.7V146.4z"/>
		</g>
	</g>
	<rect x="93.6" y="161.4" class="st3" width="332.2" height="332.2"/>
	<g>
		<g>
			<g>
				<circle class="st4" cx="152.2" cy="199" r="8.3"/>
			</g>
		</g>
		<g>
			<g>
				<circle class="st4" cx="359.8" cy="199" r="8.3"/>
			</g>
		</g>
	</g>
</g>
</svg>
