<?xml version="1.0" encoding="utf-8"?>
<!-- Generator: Adobe Illustrator 24.3.0, SVG Export Plug-In . SVG Version: 6.00 Build 0)  -->
<svg version="1.1" xmlns="http://www.w3.org/2000/svg" xmlns:xlink="http://www.w3.org/1999/xlink" x="0px" y="0px"
	 viewBox="0 0 512 512" style="enable-background:new 0 0 512 512;" xml:space="preserve">
<style type="text/css">
	.st0{display:none;}
	.st1{display:inline;}
	.st2{display:inline;stroke:#000000;stroke-miterlimit:10;}
	.st3{display:inline;fill:#FFFFFF;}
	.st4{fill:#A3A3A3;}
	.st5{fill:#FFFFFF;}
</style>
<g id="Layer_1" class="st0">
	<path class="st1" d="M213.4,30.9h85.6v14.4h30.9V28.9C329.8,13,316.9,0,301,0h-89.6c-15.9,0-28.9,13-28.9,28.9v16.4h30.9V30.9z"/>
	<path class="st1" d="M401.2,167.8H111.1c-7.9,0-14.2,6.8-13.6,14.7l24.3,299.9c1.4,16.7,15.3,29.6,32.1,29.6h204.5
		c16.8,0,30.7-12.9,32.1-29.6l24.3-299.9C415.4,174.5,409.2,167.8,401.2,167.8z M181.3,480c-0.3,0-0.6,0-1,0
		c-8.1,0-14.9-6.3-15.4-14.5l-15.2-246.2c-0.5-8.5,6-15.9,14.5-16.4c8.5-0.5,15.9,5.9,16.4,14.5l15.2,246.2
		C196.3,472.2,189.9,479.5,181.3,480z M271.8,464.6c0,8.5-6.9,15.4-15.5,15.4s-15.5-6.9-15.5-15.4V218.4c0-8.5,6.9-15.5,15.5-15.5
		c8.5,0,15.5,6.9,15.5,15.5V464.6z M362.5,219.3L348,465.5c-0.5,8.2-7.3,14.5-15.4,14.5c-0.3,0-0.6,0-0.9,0
		c-8.5-0.5-15-7.8-14.5-16.3l14.5-246.2c0.5-8.5,7.8-15,16.3-14.5C356.5,203.5,363,210.8,362.5,219.3z"/>
	<path class="st1" d="M454.6,120.1l-10.1-30.4c-2.7-8-10.2-13.4-18.6-13.4H86.4c-8.5,0-16,5.4-18.6,13.4l-10.1,30.4
		c-2,5.9,0.6,11.9,5.3,14.8c1.9,1.2,4.2,1.9,6.8,1.9h372.8c2.5,0,4.8-0.7,6.8-1.9C454.1,131.9,456.6,125.9,454.6,120.1z"/>
	<rect x="138.5" y="176.2" class="st2" width="239.5" height="317.8"/>
	<path class="st3" d="M311.3,402.2L311.3,402.2c-4.4,4-11.1,3.6-15.1-0.7L193.3,288.2c-4-4.4-3.6-11.1,0.7-15.1l0,0
		c4.4-4,11.1-3.6,15.1,0.7L312,387.1C316,391.4,315.6,398.2,311.3,402.2z"/>
	<path class="st3" d="M194,402.2L194,402.2c4.4,4,11.1,3.6,15.1-0.7L312,288.2c4-4.4,3.6-11.1-0.7-15.1l0,0
		c-4.4-4-11.1-3.6-15.1,0.7L193.3,387.1C189.3,391.4,189.6,398.2,194,402.2z"/>
</g>
<g id="Layer_1_copy">
	<path class="st4" d="M213.4,30.9h85.6v14.4h30.9V28.9C329.8,13,316.9,0,301,0h-89.6c-15.9,0-28.9,13-28.9,28.9v16.4h30.9V30.9z"/>
	<path class="st4" d="M401.2,167.8H111.1c-7.9,0-14.2,6.8-13.6,14.7l24.3,299.9c1.4,16.7,15.3,29.6,32.1,29.6h204.5
		c16.8,0,30.7-12.9,32.1-29.6l24.3-299.9C415.4,174.5,409.2,167.8,401.2,167.8z M181.3,480c-0.3,0-0.6,0-1,0
		c-8.1,0-14.9-6.3-15.4-14.5l-15.2-246.2c-0.5-8.5,6-15.9,14.5-16.4c8.5-0.5,15.9,5.9,16.4,14.5l15.2,246.2
		C196.3,472.2,189.9,479.5,181.3,480z M271.8,464.6c0,8.5-6.9,15.4-15.5,15.4s-15.5-6.9-15.5-15.4V218.4c0-8.5,6.9-15.5,15.5-15.5
		c8.5,0,15.5,6.9,15.5,15.5V464.6z M362.5,219.3L348,465.5c-0.5,8.2-7.3,14.5-15.4,14.5c-0.3,0-0.6,0-0.9,0
		c-8.5-0.5-15-7.8-14.5-16.3l14.5-246.2c0.5-8.5,7.8-15,16.3-14.5C356.5,203.5,363,210.8,362.5,219.3z"/>
	<path class="st4" d="M454.6,120.1l-10.1-30.4c-2.7-8-10.2-13.4-18.6-13.4H86.4c-8.5,0-16,5.4-18.6,13.4l-10.1,30.4
		c-2,5.9,0.6,11.9,5.3,14.8c1.9,1.2,4.2,1.9,6.8,1.9h372.8c2.5,0,4.8-0.7,6.8-1.9C454.1,131.9,456.6,125.9,454.6,120.1z"/>
	<rect x="138.5" y="176.2" class="st4" width="239.5" height="317.8"/>
	<path class="st5" d="M311.3,402.2L311.3,402.2c-4.4,4-11.1,3.6-15.1-0.7L193.3,288.2c-4-4.4-3.6-11.1,0.7-15.1l0,0
		c4.4-4,11.1-3.6,15.1,0.7L312,387.1C316,391.4,315.6,398.2,311.3,402.2z"/>
	<path class="st5" d="M194,402.2L194,402.2c4.4,4,11.1,3.6,15.1-0.7L312,288.2c4-4.4,3.6-11.1-0.7-15.1l0,0
		c-4.4-4-11.1-3.6-15.1,0.7L193.3,387.1C189.3,391.4,189.6,398.2,194,402.2z"/>
</g>
</svg>
