<?xml version="1.0" encoding="utf-8"?>
<!-- Generator: Adobe Illustrator 24.3.0, SVG Export Plug-In . SVG Version: 6.00 Build 0)  -->
<svg version="1.1" xmlns="http://www.w3.org/2000/svg" xmlns:xlink="http://www.w3.org/1999/xlink" x="0px" y="0px"
	 viewBox="0 0 512 512" style="enable-background:new 0 0 512 512;" xml:space="preserve">
<style type="text/css">
	.st0{display:none;}
	.st1{display:inline;fill:#ECEDEF;}
	.st2{fill:#9A9FAC;}
</style>
<g id="user_profile_copy" class="st0">
	<path class="st1" d="M256-0.5C114.3-0.5-0.5,114.3-0.5,256S114.3,512.5,256,512.5S512.5,397.7,512.5,256S397.7-0.5,256-0.5z
		 M256,111.1c36.5,0,61.9,27.2,61.9,66.2c0,41.2-27.8,74.7-61.9,74.7s-61.9-33.5-61.9-74.7C194.1,138.3,219.6,111.1,256,111.1z
		 M370.2,359.7c0,0.4-0.1,0.9-0.2,1.3c-0.1,0.4-0.2,0.8-0.4,1.2c-0.2,0.4-0.4,0.7-0.7,1c-0.3,0.4-0.6,0.7-0.9,1
		c-0.1,0.1-0.2,0.3-0.3,0.4c-31.4,23.7-70,36.3-111.7,36.3c-42.8,0-80.4-12.2-111.8-36.3c-0.1-0.1-0.2-0.2-0.3-0.4
		c-0.3-0.3-0.7-0.6-0.9-1c-0.2-0.3-0.5-0.7-0.6-1c-0.2-0.4-0.3-0.8-0.4-1.2c-0.1-0.4-0.2-0.9-0.2-1.3c0-0.2-0.1-0.3-0.1-0.5l0.1-5.1
		c0.1-9.1,0.2-12.4,0.3-13.4c5.1-47,45-72.9,112.4-72.9h1.3h1.9c67.3,0,107.2,25.9,112.4,72.9c0.1,1.1,0.2,4.6,0.3,13.9l0.1,4.6
		C370.3,359.4,370.3,359.6,370.2,359.7z"/>
</g>
<g id="user_profile_copy_2">
	<path class="st2" d="M256-0.5C114.3-0.5-0.5,114.3-0.5,256S114.3,512.5,256,512.5S512.5,397.7,512.5,256S397.7-0.5,256-0.5z
		 M256,111.1c36.5,0,61.9,27.2,61.9,66.2c0,41.2-27.8,74.7-61.9,74.7s-61.9-33.5-61.9-74.7C194.1,138.3,219.6,111.1,256,111.1z
		 M370.2,359.7c0,0.4-0.1,0.9-0.2,1.3c-0.1,0.4-0.2,0.8-0.4,1.2c-0.2,0.4-0.4,0.7-0.7,1c-0.3,0.4-0.6,0.7-0.9,1
		c-0.1,0.1-0.2,0.3-0.3,0.4c-31.4,23.7-70,36.3-111.7,36.3c-42.8,0-80.4-12.2-111.8-36.3c-0.1-0.1-0.2-0.2-0.3-0.4
		c-0.3-0.3-0.7-0.6-0.9-1c-0.2-0.3-0.5-0.7-0.6-1c-0.2-0.4-0.3-0.8-0.4-1.2c-0.1-0.4-0.2-0.9-0.2-1.3c0-0.2-0.1-0.3-0.1-0.5l0.1-5.1
		c0.1-9.1,0.2-12.4,0.3-13.4c5.1-47,45-72.9,112.4-72.9h1.3h1.9c67.3,0,107.2,25.9,112.4,72.9c0.1,1.1,0.2,4.6,0.3,13.9l0.1,4.6
		C370.3,359.4,370.3,359.6,370.2,359.7z"/>
</g>
</svg>
