<svg id="user_profile_copy" data-name="user profile copy" xmlns="http://www.w3.org/2000/svg" viewBox="0 0 512 512"><defs><style>.cls-1{fill:#ecedef;}</style></defs><path class="cls-1" d="M256-.5C114.33-.5-.5,114.34-.5,256S114.33,512.5,256,512.5,512.5,397.66,512.5,256,397.67-.5,256-.5Zm0,111.57c36.45,0,61.91,27.21,61.91,66.17,0,41.17-27.77,74.67-61.91,74.67s-61.91-33.5-61.91-74.67C194.09,138.28,219.55,111.07,256,111.07ZM370.25,359.73a5.9,5.9,0,0,1-.24,1.32,6,6,0,0,1-.4,1.17,6.63,6.63,0,0,1-.67,1,5.88,5.88,0,0,1-.91,1c-.13.12-.19.27-.33.38-31.39,23.74-70,36.28-111.7,36.28-42.75,0-80.36-12.22-111.75-36.32-.13-.09-.19-.24-.3-.35a6.12,6.12,0,0,1-.93-1,8.15,8.15,0,0,1-.65-1A7.77,7.77,0,0,1,142,361a5.9,5.9,0,0,1-.24-1.32c0-.16-.09-.31-.09-.47l.08-5.07c.14-9.14.21-12.36.33-13.43,5.12-47,45-72.86,112.36-72.86l1.26,0,1.87,0c67.33,0,107.24,25.87,112.37,72.85.12,1.12.19,4.62.34,13.93l.08,4.58A2.81,2.81,0,0,1,370.25,359.73Z"/></svg>