<svg id="location_pin_thin" data-name="location pin thin" xmlns="http://www.w3.org/2000/svg" viewBox="0 0 512 512"><defs><style>.cls-1{fill:#0c9;}</style></defs><path class="cls-1" d="M256,5.12C117.44,5.12,5.11,117.44,5.11,256S117.44,506.88,256,506.88,506.89,394.56,506.89,256,394.56,5.12,256,5.12Zm0,109.12c35.65,0,60.56,26.61,60.56,64.72,0,40.28-27.16,73-60.56,73s-60.56-32.76-60.56-73C195.44,140.86,220.35,114.24,256,114.24ZM367.75,357.46a5.75,5.75,0,0,1-.24,1.29,5.68,5.68,0,0,1-.39,1.14,5.35,5.35,0,0,1-.65,1,6.06,6.06,0,0,1-.89,1c-.13.12-.19.27-.32.37-30.71,23.22-68.49,35.49-109.26,35.49-41.82,0-78.6-11.95-109.3-35.52-.13-.09-.18-.24-.3-.35a5.48,5.48,0,0,1-.9-1,6.77,6.77,0,0,1-.64-1,7.53,7.53,0,0,1-.39-1.16,6.23,6.23,0,0,1-.23-1.29c0-.16-.09-.3-.09-.46l.08-5c.14-8.94.2-12.09.32-13.14,5-45.95,44-71.26,109.91-71.26l1.23,0,1.83,0c65.86,0,104.89,25.31,109.91,71.25.12,1.1.18,4.52.33,13.63l.08,4.48A2.7,2.7,0,0,1,367.75,357.46Z"/></svg>